# xmcd CD database file
#
# Track frame offsets:
#	150
#	17125
#	30244
#	41703
#	53889
#	73377
#	90191
#	106265
#	120017
#	135150
#	150762
#
# Disc length: 2284 seconds
#
# Revision: 1
# Processed by: cddbd v1.4PL0 Copyright (c) Steve Scherf et al.
# Submitted via: CDex 1.50beta9
#
DISCID=7308ea0b
DTITLE=The Logger and the Fellers - Golddiggers Beware
DYEAR=1900
DGENRE=
TTITLE0=Christmastime Again In Woodchuckberry
TTITLE1=Do Lord
TTITLE2=Moonshine Runners Getaway
TTITLE3=Golddiggers Beware
TTITLE4=Farmers Stone (Well On The Way)
TTITLE5=Medley
TTITLE6=What A Fool I've Been
TTITLE7=Fiddle Strings
TTITLE8=Liza Jane
TTITLE9=Ole Joe Clark
TTITLE10=63 Ford Hammers and Chews 1,2,3,4,5
EXTD=
EXTT0=
EXTT1=
EXTT2=
EXTT3=
EXTT4=
EXTT5=
EXTT6=
EXTT7=
EXTT8=
EXTT9=
EXTT10=
PLAYORDER=
